<svg width="1363" height="656" viewBox="0 0 1363 656" fill="none" xmlns="http://www.w3.org/2000/svg">
<rect width="1362" height="656" rx="45" fill="url(#paint0_linear_1040_2)"/>
<mask id="mask0_1040_2" style="mask-type:alpha" maskUnits="userSpaceOnUse" x="1" y="0" width="1362" height="656">
<rect x="1" width="1362" height="656" rx="20" fill="url(#paint1_linear_1040_2)"/>
</mask>
<g mask="url(#mask0_1040_2)">
<rect opacity="0.31" x="1125.5" y="306.5" width="363" height="383" rx="29.5" fill="url(#paint2_linear_1040_2)" stroke="white"/>
<rect opacity="0.31" x="1041.5" y="377.5" width="466" height="383" rx="29.5" fill="url(#paint3_linear_1040_2)" stroke="white"/>
<rect opacity="0.31" x="985.5" y="455.5" width="466" height="383" rx="29.5" fill="url(#paint4_linear_1040_2)" stroke="white"/>
<rect opacity="0.31" x="0.5" y="-0.5" width="365" height="385" rx="30.5" transform="matrix(-1 0 0 1 225 310)" fill="url(#paint5_linear_1040_2)" stroke="white"/>
<rect opacity="0.31" x="0.5" y="-0.5" width="468" height="385" rx="30.5" transform="matrix(-1 0 0 1 309 381)" fill="url(#paint6_linear_1040_2)" stroke="white"/>
<rect opacity="0.31" x="0.5" y="-0.5" width="468" height="385" rx="30.5" transform="matrix(-1 0 0 1 365 459)" fill="url(#paint7_linear_1040_2)" stroke="white"/>
</g>
<defs>
<linearGradient id="paint0_linear_1040_2" x1="681" y1="0" x2="681" y2="656" gradientUnits="userSpaceOnUse">
<stop stop-color="#034ED2"/>
<stop offset="1" stop-color="#6298E5"/>
</linearGradient>
<linearGradient id="paint1_linear_1040_2" x1="682" y1="0" x2="682" y2="656" gradientUnits="userSpaceOnUse">
<stop stop-color="#034ED2"/>
<stop offset="1" stop-color="#6298E5"/>
</linearGradient>
<linearGradient id="paint2_linear_1040_2" x1="1307" y1="306" x2="1307" y2="690" gradientUnits="userSpaceOnUse">
<stop stop-color="white"/>
<stop offset="1" stop-color="white" stop-opacity="0.1"/>
</linearGradient>
<linearGradient id="paint3_linear_1040_2" x1="1274.5" y1="377" x2="1274.5" y2="761" gradientUnits="userSpaceOnUse">
<stop stop-color="white"/>
<stop offset="1" stop-color="white" stop-opacity="0.1"/>
</linearGradient>
<linearGradient id="paint4_linear_1040_2" x1="1218.5" y1="455" x2="1218.5" y2="839" gradientUnits="userSpaceOnUse">
<stop stop-color="white"/>
<stop offset="1" stop-color="white" stop-opacity="0.1"/>
</linearGradient>
<linearGradient id="paint5_linear_1040_2" x1="182" y1="0" x2="182" y2="384" gradientUnits="userSpaceOnUse">
<stop stop-color="white"/>
<stop offset="1" stop-color="white" stop-opacity="0.1"/>
</linearGradient>
<linearGradient id="paint6_linear_1040_2" x1="233.5" y1="0" x2="233.5" y2="384" gradientUnits="userSpaceOnUse">
<stop stop-color="white"/>
<stop offset="1" stop-color="white" stop-opacity="0.1"/>
</linearGradient>
<linearGradient id="paint7_linear_1040_2" x1="233.5" y1="0" x2="233.5" y2="384" gradientUnits="userSpaceOnUse">
<stop stop-color="white"/>
<stop offset="1" stop-color="white" stop-opacity="0.1"/>
</linearGradient>
</defs>
</svg>
