<svg width="14" height="14" viewBox="0 0 14 14" fill="none" xmlns="http://www.w3.org/2000/svg">
<path d="M10.1809 1.15942H4.16643C2.50557 1.15942 1.15918 2.50581 1.15918 4.16667V10.1812C1.15918 11.842 2.50557 13.1884 4.16643 13.1884H10.1809C11.8418 13.1884 13.1882 11.842 13.1882 10.1812V4.16667C13.1882 2.50581 11.8418 1.15942 10.1809 1.15942Z" stroke="black" stroke-linecap="round" stroke-linejoin="round"/>
<path d="M9.58001 6.7951C9.65423 7.29565 9.56874 7.80686 9.33567 8.25603C9.10261 8.70519 8.73386 9.06942 8.28186 9.29693C7.82985 9.52443 7.31762 9.60362 6.81802 9.52323C6.31842 9.44284 5.85689 9.20696 5.49908 8.84914C5.14126 8.49133 4.90538 8.0298 4.82499 7.5302C4.7446 7.0306 4.82379 6.51837 5.05129 6.06636C5.2788 5.61436 5.64303 5.24561 6.09219 5.01255C6.54136 4.77948 7.05257 4.69399 7.55312 4.76821C8.06371 4.84393 8.5364 5.08185 8.90139 5.44683C9.26637 5.81182 9.50429 6.28451 9.58001 6.7951Z" stroke="black" stroke-linecap="round" stroke-linejoin="round"/>
<path d="M10.4819 3.86597H10.4883" stroke="black" stroke-linecap="round" stroke-linejoin="round"/>
</svg>
